HIERARCHY
ROOT ui
{
	 OFFSET 0 0 0
	 CHANNELS 3 XPosition YPosition Z Position
	 EndSite
	 {
	 OFFSET 0 -1 0
	 }
}
ROOT li
{
	 OFFSET 0 0 0
	 CHANNELS 3 XPosition YPosition Z Position
	 EndSite
	 {
	 OFFSET 0 -1 0
	 }
}
ROOT ul
{
	 OFFSET 0 0 0
	 CHANNELS 3 XPosition YPosition Z Position
	 EndSite
	 {
	 OFFSET 0 -1 0
	 }
}
ROOT ll
{
	 OFFSET 0 0 0
	 CHANNELS 3 XPosition YPosition Z Position
	 EndSite
	 {
	 OFFSET 0 -1 0
	 }
}
ROOT tt
{
	 OFFSET 0 0 0
	 CHANNELS 3 XPosition YPosition Z Position
	 EndSite
	 {
	 OFFSET 0 -1 0
	 }
}
ROOT tb
{
	 OFFSET 0 0 0
	 CHANNELS 3 XPosition YPosition Z Position
	 EndSite
	 {
	 OFFSET 0 -1 0
	 }
}
ROOT td
{
	 OFFSET 0 0 0
	 CHANNELS 3 XPosition YPosition Z Position
	 EndSite
	 {
	 OFFSET 0 -1 0
	 }
}
ROOT v
{
	 OFFSET 0 0 0
	 CHANNELS 3 XPosition YPosition Z Position
	 EndSite
	 {
	 OFFSET 0 -1 0
	 }
}
ROOT bn
{
	 OFFSET 0 0 0
	 CHANNELS 3 XPosition YPosition Z Position
	 EndSite
	 {
	 OFFSET 0 -1 0
	 }
}
MOTION
Frames: 27
Frame Time: 0.002
-0.0010591399669647216	0.001748795986175537	0		0.43203082275390625	-2.43169287109375	0		-1.11939697265625	0.11213200378417969	0		-0.4885266418457031	-2.701609375	0		1.428871337890625	-0.7448380126953125	0		3.018270751953125	-0.06385151290893555	0		4.37884912109375	0.14282933044433593	0		5.6182548828125	0.07876412963867188	0		-0.2392891387939453	5.89545654296875	0		
0.01014188003540039	0.0033105599880218508	0		0.48853741455078126	-2.433798828125	0		-1.006274658203125	0.10886834716796875	0		-0.452977294921875	-2.703510009765625	0		1.4253150634765626	-0.7348214111328125	0		2.985812744140625	-0.04112912368774414	0		4.384111328125	0.1501366729736328	0		5.61351953125	0.09722169494628906	0		-0.24195913696289062	5.89719482421875	0		
0.005250596046447754	-8.519139885902405E-4	0		0.45804318237304686	-2.435471435546875	0		-1.10812060546875	0.10911919403076172	0		-0.4554351806640625	-2.705773681640625	0		1.41643701171875	-0.744708740234375	0		2.967719970703125	-0.05763895416259766	0		4.379166015625	0.14462310791015626	0		5.61294775390625	0.09823629760742188	0		-0.2446442108154297	5.89794580078125	0		
-0.0035301508903503418	0.0010606100559234618	0		0.4815030822753906	-2.4410029296875	0		-1.021137451171875	0.09633602905273438	0		-0.4558526611328125	-2.70605615234375	0		1.415732177734375	-0.7447171020507812	0		2.96691455078125	-0.05742007446289062	0		4.37833056640625	0.14504873657226564	0		5.60944189453125	0.08552859497070313	0		-0.273670166015625	5.87612841796875	0		
-0.004321983814239502	8.568840026855469E-4	0		0.4530791320800781	-2.439694091796875	0		-1.0969176025390626	0.09817488861083984	0		-0.445402099609375	-2.71549755859375	0		1.4209351806640624	-0.7518124389648437	0		2.99303271484375	-0.06362678527832032	0		4.36653564453125	0.1466444549560547	0		5.61600439453125	0.0827996826171875	0		-0.40961627197265627	5.85701123046875	0		
0.024835145950317383	-0.00480536413192749	0		0.49050775146484377	-2.449418701171875	0		-1.0936292724609376	0.1017696762084961	0		-0.47567596435546877	-2.70827978515625	0		1.4233245849609375	-0.7488558959960937	0		2.982501953125	-0.049251522064208984	0		4.381626953125	0.13880288696289061	0		5.6154794921875	0.08377666473388672	0		-0.2485419464111328	5.89621484375	0		
0.0013039319515228273	0.0073747911453247075	0		0.4563138122558594	-2.43600634765625	0		-1.0102653198242189	0.10713777923583985	0		-0.43903140258789064	-2.70809814453125	0		1.4196549072265625	-0.7518020629882812	0		2.9695546875	-0.06385174942016601	0		4.38008984375	0.1522113494873047	0		5.614982421875	0.08471306610107422	0		-0.2783597717285156	5.87544091796875	0		
0.02343796730041504	-0.005147776126861572	0		0.47782833862304686	-2.44345751953125	0		-1.099114990234375	0.0972041778564453	0		-0.4305433654785156	-2.719458984375	0		1.4190712890625	-0.7517947998046876	0		2.990083984375	-0.05097814178466797	0		4.37122509765625	0.1417107696533203	0		5.6103466796875	0.10305986785888673	0		-0.27976565551757815	5.8752373046875	0		
-0.004065571784973144	0.0031092400550842285	0		0.4764524230957031	-2.445544921875	0		-1.0307030029296875	0.09985922241210937	0		-0.4097977294921875	-2.715990234375	0		1.409575927734375	-0.7486505737304687	0		2.959294921875	-0.06132739639282227	0		4.37465478515625	0.14699925231933594	0		5.60991162109375	0.10389239501953125	0		-0.282049072265625	5.87706103515625	0		
-0.007694033145904541	5.530999973416328E-6	0		0.44918328857421874	-2.44223193359375	0		-1.1003494873046875	0.09664906311035157	0		-0.4640953063964844	-2.71636181640625	0		1.414982177734375	-0.75473779296875	0		2.95382568359375	-0.05408081817626953	0		4.37485791015625	0.1343101348876953	0		5.6136796875	0.08720770263671875	0		-0.4166032104492188	5.855908203125	0		
0.0037986519336700437	0.0016822930574417114	0		0.47169204711914064	-2.455674072265625	0		-1.0968353271484375	0.10033734130859374	0		-0.41648638916015623	-2.72527392578125	0		1.4234598388671875	-0.7588727416992187	0		2.9761259765625	-0.06527283477783204	0		4.361294921875	0.13380343627929686	0		5.61623779296875	0.09991922760009765	0		-0.2541385803222656	5.89325634765625	0		
0.0033087260723114013	0.0015492249727249146	0		0.4625490417480469	-2.4476298828125	0		-1.08922998046875	0.10698217010498047	0		-0.4466173095703125	-2.71799560546875	0		1.4171456298828125	-0.7517860717773438	0		2.9878662109375	-0.05031502532958984	0		4.37789599609375	0.14081419372558593	0		5.61589990234375	0.10056259155273438	0		-0.2551544647216797	5.894099609375	0		
-0.006118937015533447	0.0025563569068908693	0		0.47533953857421873	-2.4459130859375	0		-1.038703125	0.1050009994506836	0		-0.42780474853515627	-2.71644482421875	0		1.4137208251953124	-0.7547494506835938	0		2.95726611328125	-0.06074203109741211	0		4.3684716796875	0.1431885986328125	0		5.61266650390625	0.0891361312866211	0		-0.28538864135742187	5.87438623046875	0		
-0.004635611057281494	-0.005596466064453125	0		0.45601190185546875	-2.453717041015625	0		-1.1150999755859374	0.10592841339111328	0		-0.4171299438476562	-2.725763427734375	0		1.4103218994140625	-0.7587200927734375	0		2.96878271484375	-0.06681781005859375	0		4.36885498046875	0.1293848876953125	0		5.6082197265625	0.10710016632080079	0		-0.28623388671875	5.8742412109375	0		
-0.004985761165618896	-0.005717978000640869	0		0.46366552734375	-2.464924072265625	0		-1.039466064453125	0.10460601043701172	0		-0.40438424682617186	-2.73210498046875	0		1.4100233154296875	-0.7587448120117187	0		2.968436767578125	-0.06673589324951172	0		4.36158544921875	0.13566552734375	0		5.61215185546875	0.09008872222900391	0		-0.2869862976074219	5.87410009765625	0		
-0.00716926622390747	0.0021903679370880126	0		0.43858880615234375	-2.459648193359375	0		-1.1029150390625	0.09535306549072266	0		-0.43441482543945314	-2.724807861328125	0		1.415677978515625	-0.764867431640625	0		2.978240966796875	-0.05982480239868164	0		4.36127490234375	0.1358089141845703	0		5.611943359375	0.09045538330078125	0		-0.39363143920898436	5.875525390625	0		
0.026546770095825196	-4.2831000685691835E-4	0		0.49341659545898436	-2.4635517578125	0		-1.0400306396484376	0.10424982452392578	0		-0.3866458435058594	-2.73365380859375	0		1.418510986328125	-0.7619568481445312	0		2.957804443359375	-0.07249300384521484	0		4.36101708984375	0.1359178466796875	0		5.60759716796875	0.10819715118408203	0		-0.28820086669921874	5.87382861328125	0		
-0.0076177120208740234	0.0019522149562835693	0		0.45342071533203127	-2.457063232421875	0		-1.116224609375	0.10519827270507813	0		-0.38672189331054685	-2.733789306640625	0		1.409201904296875	-0.77187939453125	0		2.9836953125	-0.06686141967773437	0		4.35772607421875	0.1300377197265625	0		5.6074619140625	0.10841419219970704	0		-0.2886591186523437	5.87369775390625	0		
0.014177831649780273	-0.002486833095550537	0		0.47829193115234375	-2.46252880859375	0		-1.044438232421875	0.09998799133300781	0		-0.3847357788085938	-2.731950927734375	0		1.4031749267578124	-0.7658582763671875	0		2.94849951171875	-0.07035760498046875	0		4.35757763671875	0.13008045959472656	0		5.6144853515625	0.10657781219482422	0		-0.2899898376464844	5.87558349609375	0		
-0.0029258620738983154	-0.003355978012084961	0		0.4332056884765625	-2.466975830078125	0		-1.0404742431640626	0.10378085327148437	0		-0.371849365234375	-2.7392685546875	0		1.4010631103515625	-0.76890478515625	0		2.94841064453125	-0.07038787078857422	0		4.35138134765625	0.12318009948730468	0		5.607302734375	0.10863809967041016	0		-0.42357583618164063	5.85439892578125	0		
0.018103794097900392	0.0012207000255584717	0		0.47311474609375	-2.474664306640625	0		-1.103656494140625	0.09455815124511718	0		-0.4316178588867188	-2.724522216796875	0		1.368028564453125	-0.769509521484375	0		2.96223876953125	-0.07964064025878906	0		4.351337890625	0.12316208648681641	0		5.611451171875	0.09120252227783203	0		-0.2601851196289062	5.8918955078125	0		
0.00109584903717041	3.5210001468658446E-4	0		0.43836795043945315	-2.460265380859375	0		-1.0214292602539063	0.10922976684570312	0		-0.3575464782714844	-2.7237216796875	0		1.4090128173828125	-0.7721987915039062	0		2.9465517578125	-0.05847715377807617	0		4.35442724609375	0.1290740203857422	0		5.6143818359375	0.10316775512695313	0		-0.26026373291015625	5.89277490234375	0		
0.023079612731933593	-0.004081697940826416	0		0.45929202270507813	-2.47067919921875	0		-1.040471435546875	0.10338043212890625	0		-0.3924537658691406	-2.722331787109375	0		1.39805224609375	-0.7731378173828125	0		2.949247802734375	-0.08260003662109375	0		4.353412109375	0.12502280426025392	0		5.607314453125	0.10851614379882812	0		-0.262255859375	5.89468603515625	0		
-0.007769824028015137	0.0012558150291442872	0		0.4593812255859375	-2.47078857421875	0		-1.0403974609375	0.10326205444335937	0		-0.3573813171386719	-2.72395458984375	0		1.40098583984375	-0.783284423828125	0		2.944425048828125	-0.07562310028076172	0		4.3424873046875	0.12509586334228515	0		5.6073681640625	0.10837773895263672	0		-0.289532470703125	5.872966796875	0		
-0.01071873664855957	-0.0018091100454330445	0		0.46731631469726564	-2.48201220703125	0		-1.110368408203125	0.09916968536376954	0		-0.4004261474609375	-2.733438232421875	0		1.35707080078125	-0.78375341796875	0		2.951228271484375	-0.095829833984375	0		4.34746484375	0.11691767120361328	0		5.60743505859375	0.10819469451904297	0		-0.42373214721679686	5.8538056640625	0		
-0.007572207927703857	0.0010430530309677125	0		0.4424828796386719	-2.476755859375	0		-1.0151874389648436	0.10369046020507812	0		-0.3263148498535156	-2.732615234375	0		1.40118017578125	-0.783503173828125	0		2.93565234375	-0.07371798706054687	0		4.3516552734375	0.12273394775390625	0		5.61460888671875	0.10252816772460938	0		-0.26100759887695313	5.89334619140625	0		
-0.0034113290309906005	0.00488672685623169	0		0.47155816650390625	-2.47727978515625	0		-1.015083251953125	0.10360279083251953	0		-0.38704364013671877	-2.718824462890625	0		1.360308837890625	-0.781019287109375	0		2.951433349609375	-0.09607547760009766	0		4.3427900390625	0.12472312927246093	0		5.6075810546875	0.10770452117919922	0		-0.2891477355957031	5.87266015625	0		
